<?xml version="1.0" encoding="UTF-8" standalone="no"?>
<!-- Created with Inkscape (http://www.inkscape.org/) -->

<svg
   width="210mm"
   height="297mm"
   viewBox="0 0 210 297"
   version="1.1"
   id="svg1"
   inkscape:version="1.3.2 (091e20e, 2023-11-25, custom)"
   sodipodi:docname="pasta_2d.svg"
   xmlns:inkscape="http://www.inkscape.org/namespaces/inkscape"
   xmlns:sodipodi="http://sodipodi.sourceforge.net/DTD/sodipodi-0.dtd"
   xmlns="http://www.w3.org/2000/svg"
   xmlns:svg="http://www.w3.org/2000/svg">
  <sodipodi:namedview
     id="namedview1"
     pagecolor="#ffffff"
     bordercolor="#000000"
     borderopacity="0.25"
     inkscape:showpageshadow="2"
     inkscape:pageopacity="0.0"
     inkscape:pagecheckerboard="0"
     inkscape:deskcolor="#d1d1d1"
     inkscape:document-units="mm"
     inkscape:zoom="3.235578"
     inkscape:cx="437.0162"
     inkscape:cy="562.4961"
     inkscape:window-width="1280"
     inkscape:window-height="650"
     inkscape:window-x="-6"
     inkscape:window-y="-6"
     inkscape:window-maximized="1"
     inkscape:current-layer="layer1"
     inkscape:export-bgcolor="#ffffffff" />
  <defs
     id="defs1" />
  <g
     inkscape:label="Layer 1"
     inkscape:groupmode="layer"
     id="layer1">
    <circle
       style="fill:#9aff95;fill-opacity:1;stroke-width:0.473817;stroke-linecap:round;paint-order:fill markers stroke"
       id="path2-6-7"
       cx="97.604164"
       cy="146.81667"
       r="6" />
    <circle
       style="fill:#9aff95;stroke-width:0.394848;stroke-linecap:round;paint-order:fill markers stroke;fill-opacity:1"
       id="path2-6-2"
       cx="97.604164"
       cy="146.81667"
       r="5" />
    <path
       sodipodi:type="star"
       style="fill:#ffb3fb;fill-opacity:1;stroke-width:1;stroke-linecap:round;paint-order:fill markers stroke"
       id="path3"
       inkscape:flatsided="false"
       sodipodi:sides="12"
       sodipodi:cx="105.81487"
       sodipodi:cy="146.0592"
       sodipodi:r1="4.1232634"
       sodipodi:r2="3.7810326"
       sodipodi:arg1="1.3089969"
       sodipodi:arg2="1.5707963"
       inkscape:rounded="0.5"
       inkscape:randomized="0"
       d="m 106.88205,150.04197 c -0.52453,0.14055 -0.52414,-0.20173 -1.06718,-0.20173 -0.54304,0 -0.54264,0.34228 -1.06718,0.20173 -0.52453,-0.14055 -0.35305,-0.43678 -0.82333,-0.7083 -0.47029,-0.27152 -0.64109,0.0251 -1.02507,-0.35888 -0.38399,-0.38399 -0.0874,-0.55478 -0.35889,-1.02507 -0.27152,-0.47029 -0.56774,-0.2988 -0.70829,-0.82334 -0.14055,-0.52453 0.20173,-0.52414 0.20173,-1.06718 0,-0.54304 -0.34228,-0.54264 -0.20173,-1.06717 0.14055,-0.52454 0.43677,-0.35306 0.70829,-0.82334 0.27152,-0.47029 -0.0251,-0.64109 0.35889,-1.02507 0.38398,-0.38399 0.55478,-0.0874 1.02507,-0.35889 0.47028,-0.27152 0.2988,-0.56774 0.82333,-0.70829 0.52454,-0.14055 0.52414,0.20173 1.06718,0.20173 0.54304,0 0.54265,-0.34228 1.06718,-0.20173 0.52454,0.14055 0.35305,0.43677 0.82334,0.70829 0.47028,0.27152 0.64108,-0.0251 1.02507,0.35889 0.38399,0.38398 0.0874,0.55478 0.35888,1.02507 0.27152,0.47028 0.56775,0.2988 0.7083,0.82333 0.14055,0.52454 -0.20173,0.52414 -0.20173,1.06718 0,0.54304 0.34228,0.54265 0.20173,1.06718 -0.14055,0.52454 -0.43678,0.35305 -0.7083,0.82334 -0.27152,0.47029 0.0251,0.64108 -0.35888,1.02507 -0.38399,0.38399 -0.55478,0.0874 -1.02507,0.35888 -0.47029,0.27152 -0.2988,0.56775 -0.82334,0.7083 z"
       inkscape:transform-center-x="6.6040907e-06"
       inkscape:transform-center-y="-8.2038856e-06"
       transform="matrix(1.4551608,0,0,1.4551608,-56.373496,-65.722969)" />
    <circle
       style="fill:#ffb3fb;stroke-width:0.454075;stroke-linecap:round;paint-order:fill markers stroke;fill-opacity:1"
       id="path2-6"
       cx="98.730003"
       cy="129.49149"
       r="5.75" />
    <circle
       style="fill:#a7f2ff;fill-opacity:1;stroke-width:0.335621;stroke-linecap:round;paint-order:fill markers stroke"
       id="path2"
       cx="98.730003"
       cy="129.49149"
       r="4.25" />
    <path
       id="path2-6-3"
       style="fill:#000000;fill-opacity:1;stroke-width:0.454075;stroke-linecap:round;paint-order:fill markers stroke"
       d="M 118.72712 125.4125 A 5.75 5.75 0 0 0 112.97708 131.16254 A 5.75 5.75 0 0 0 118.72712 136.91257 A 5.75 5.75 0 0 0 124.47716 131.16254 A 5.75 5.75 0 0 0 118.72712 125.4125 z M 118.72712 126.91267 A 4.25 4.25 0 0 1 122.97699 131.16254 A 4.25 4.25 0 0 1 118.72712 135.41241 A 4.25 4.25 0 0 1 114.47725 131.16254 A 4.25 4.25 0 0 1 118.72712 126.91267 z " />
    <circle
       style="fill:#a7f2ff;fill-opacity:1;stroke-width:0.335621;stroke-linecap:round;paint-order:fill markers stroke"
       id="path2-3"
       cx="97.604164"
       cy="146.81667"
       r="4.25" />
    <path
       id="path3-4"
       style="fill:#000000;fill-opacity:1;stroke-width:1.45516;stroke-linecap:round;paint-order:fill markers stroke"
       inkscape:transform-center-x="6.6040907e-06"
       inkscape:transform-center-y="-8.2038856e-06"
       d="m 117.53339,141.54536 c -0.0996,-0.003 -0.21603,0.0108 -0.35914,0.0491 -0.76329,0.20452 -0.51353,0.63532 -1.19786,1.03042 -0.68435,0.39511 -0.93314,-0.0363 -1.49191,0.52245 -0.55875,0.55877 -0.12734,0.80705 -0.52244,1.49138 -0.39511,0.68435 -0.82591,0.43509 -1.03043,1.19838 -0.20453,0.76329 0.29352,0.76267 0.29352,1.55288 0,0.79021 -0.49805,0.7896 -0.29352,1.55287 0.20452,0.76329 0.63532,0.51353 1.03043,1.19786 0.3951,0.68435 -0.0363,0.93314 0.52244,1.49191 0.55877,0.55876 0.80756,0.12734 1.49191,0.52244 0.68433,0.39511 0.43457,0.82591 1.19786,1.03043 0.76329,0.20452 0.76266,-0.29352 1.55287,-0.29352 0.79021,0 0.7896,0.49804 1.55287,0.29352 0.76329,-0.20452 0.51404,-0.63532 1.19839,-1.03043 0.68433,-0.3951 0.93261,0.0363 1.49138,-0.52244 0.55876,-0.55877 0.12734,-0.80756 0.52244,-1.49191 0.39511,-0.68433 0.82591,-0.43457 1.03043,-1.19786 0.20453,-0.76327 -0.29352,-0.76266 -0.29352,-1.55287 0,-0.79021 0.49805,-0.78959 0.29352,-1.55288 -0.20452,-0.76329 -0.63532,-0.51403 -1.03043,-1.19838 -0.3951,-0.68433 0.0363,-0.93261 -0.52244,-1.49138 -0.55877,-0.55875 -0.80705,-0.12734 -1.49138,-0.52245 -0.68435,-0.3951 -0.4351,-0.8259 -1.19839,-1.03042 -0.76327,-0.20453 -0.76266,0.29352 -1.55287,0.29352 -0.64205,0 -0.76189,-0.32902 -1.19373,-0.34262 z m 1.19373,1.59474 a 4.25,4.25 0 0 1 4.24987,4.24987 4.25,4.25 0 0 1 -4.24987,4.24987 4.25,4.25 0 0 1 -4.24987,-4.24987 4.25,4.25 0 0 1 4.24987,-4.24987 z"
       inkscape:export-filename="e_2d.png"
       inkscape:export-xdpi="254"
       inkscape:export-ydpi="254" />
  </g>
</svg>
